<?xml version="1.0" standalone="no"?>
<!DOCTYPE svg PUBLIC "-//W3C//DTD SVG 20010904//EN"
 "http://www.w3.org/TR/2001/REC-SVG-20010904/DTD/svg10.dtd">
<svg version="1.0" xmlns="http://www.w3.org/2000/svg"
 width="300.000000pt" height="225.000000pt" viewBox="0 0 300.000000 225.000000"
 preserveAspectRatio="xMidYMid meet">
<metadata>
Created by potrace 1.10, written by Peter Selinger 2001-2011
</metadata>
<g transform="translate(0.000000,225.000000) scale(0.100000,-0.100000)"
fill="#000000" stroke="none">
<path d="M1320 2140 c-287 -34 -570 -204 -729 -439 -280 -412 -224 -967 131
-1306 46 -44 109 -97 140 -118 414 -273 948 -226 1297 116 60 58 177 205 169
212 -1 1 -27 -2 -56 -8 -48 -10 -58 -17 -104 -74 -116 -143 -301 -260 -484
-308 -261 -68 -548 -21 -765 126 -153 103 -292 272 -356 434 -51 129 -66 225
-60 383 6 166 22 232 92 377 118 244 338 426 600 496 122 32 322 37 442 10
178 -39 323 -115 450 -235 228 -215 335 -516 289 -816 -27 -173 -69 -230 -176
-232 -59 -2 -96 20 -122 73 -16 31 -18 74 -18 457 0 232 -3 422 -8 422 -4 0
-12 -8 -19 -18 -8 -14 -376 -433 -435 -497 -6 -6 -8 88 -6 248 2 141 2 257 0
257 -2 0 -105 -100 -229 -223 l-226 -224 38 -23 37 -23 147 147 c80 80 148
146 151 146 3 0 4 -120 2 -266 l-3 -266 28 33 c15 19 89 101 163 184 199 222
255 286 258 296 14 36 17 -27 14 -281 -3 -323 4 -385 57 -450 46 -57 86 -75
166 -75 194 0 271 130 269 455 0 169 -15 248 -72 385 -175 422 -616 678 -1072
625z m229 -605 c-1 -30 -6 -52 -11 -49 -5 3 -6 10 -3 15 4 5 0 9 -9 9 -8 0
-16 6 -19 13 -3 9 -8 9 -21 -2 -9 -8 -19 -11 -23 -7 -3 3 -1 6 5 6 7 0 12 5
12 10 0 12 50 59 63 60 4 0 7 -25 6 -55z m461 1 l0 -44 -30 15 c-31 15 -31 22
-2 56 24 27 32 20 32 -27z m-404 -368 c2 1 9 2 14 2 6 0 -1 -12 -15 -27 -14
-15 -25 -31 -25 -35 0 -5 -7 -8 -15 -8 -11 0 -15 11 -15 43 0 53 8 62 33 40
10 -10 21 -17 23 -15z"/>
<path d="M983 1773 c-57 -20 -132 -89 -167 -154 -22 -40 -30 -70 -34 -125 -9
-140 59 -230 283 -379 155 -103 223 -168 260 -248 93 -199 -102 -427 -309
-362 -103 33 -176 129 -176 235 0 78 27 127 119 221 45 45 81 83 81 85 0 1
-16 12 -36 23 l-36 22 -76 -78 c-99 -103 -137 -179 -137 -278 0 -56 5 -81 27
-126 36 -72 98 -135 168 -168 79 -38 201 -38 280 0 72 35 133 97 173 178 27
55 32 76 32 141 0 68 -4 84 -38 152 -46 95 -143 188 -276 268 -218 130 -296
252 -242 376 42 93 123 153 209 154 45 0 105 -21 133 -46 15 -13 20 -12 47 16
l31 30 -33 25 c-71 54 -193 70 -283 38z"/>
</g>
</svg>
